solid cube_trans0.00_sphere1.00
  facet normal -0.000000 0.000000 -1.000000
    outer loop
      vertex 0.000000 1.000000 0.000000
      vertex 0.000000 2.000000 0.000000
      vertex 2.000000 2.000000 0.000000
    endloop
  endfacet
  facet normal -0.000000 0.000000 -1.000000
    outer loop
      vertex 0.000000 1.000000 0.000000
      vertex 2.000000 2.000000 0.000000
      vertex 2.000000 0.602175 0.000000
    endloop
  endfacet
  facet normal -0.000000 0.000000 -1.000000
    outer loop
      vertex 1.765367 0.000000 0.000000
      vertex 0.382683 0.923880 0.000000
      vertex 2.000000 0.602175 0.000000
    endloop
  endfacet
  facet normal -0.000000 0.000000 -1.000000
    outer loop
      vertex 1.765367 0.000000 0.000000
      vertex 2.000000 0.602175 0.000000
      vertex 2.000000 0.000000 0.000000
    endloop
  endfacet
  facet normal -0.000000 0.000000 -1.000000
    outer loop
      vertex 0.707107 0.707107 0.000000
      vertex 1.765367 0.000000 0.000000
      vertex 1.179580 0.000000 0.000000
    endloop
  endfacet
  facet normal -0.000000 0.000000 -1.000000
    outer loop
      vertex 0.923880 0.382683 0.000000
      vertex 1.179580 0.000000 0.000000
      vertex 1.000000 0.000000 0.000000
    endloop
  endfacet
  facet normal -0.000000 -0.000000 1.000000
    outer loop
      vertex 0.000000 0.920868 2.000000
      vertex 2.000000 0.523043 2.000000
      vertex 2.000000 2.000000 2.000000
    endloop
  endfacet
  facet normal -0.000000 -0.000000 1.000000
    outer loop
      vertex 0.000000 0.920868 2.000000
      vertex 2.000000 2.000000 2.000000
      vertex 0.000000 2.000000 2.000000
    endloop
  endfacet
  facet normal -0.000000 0.000000 1.000000
    outer loop
      vertex 0.000000 0.920868 2.000000
      vertex 0.000000 0.913762 2.000000
      vertex 1.367542 0.000000 2.000000
    endloop
  endfacet
  facet normal -0.000000 0.000000 1.000000
    outer loop
      vertex 0.000000 0.920868 2.000000
      vertex 1.367542 0.000000 2.000000
      vertex 2.000000 0.000000 2.000000
    endloop
  endfacet
  facet normal -0.000000 0.000000 1.000000
    outer loop
      vertex 0.000000 0.920868 2.000000
      vertex 2.000000 0.000000 2.000000
      vertex 2.000000 0.523043 2.000000
    endloop
  endfacet
  facet normal -0.000000 -0.000000 1.000000
    outer loop
      vertex 0.309282 0.707107 2.000000
      vertex 0.781756 0.000000 2.000000
      vertex 1.367542 0.000000 2.000000
    endloop
  endfacet
  facet normal -0.000000 -0.000000 1.000000
    outer loop
      vertex 0.526055 0.382683 2.000000
      vertex 0.602175 0.000000 2.000000
      vertex 0.781756 0.000000 2.000000
    endloop
  endfacet
  facet normal -0.000000 -0.000000 1.000000
    outer loop
      vertex 0.278475 0.727691 2.000000
      vertex 0.000000 0.913762 2.000000
      vertex 0.000000 0.774650 2.000000
    endloop
  endfacet
  facet normal -0.000000 -0.000000 1.000000
    outer loop
      vertex 0.583908 0.091838 2.000000
      vertex 0.526055 0.382683 2.000000
      vertex 0.309282 0.707107 2.000000
    endloop
  endfacet
  facet normal -0.000000 -0.000000 1.000000
    outer loop
      vertex 0.583908 0.091838 2.000000
      vertex 0.309282 0.707107 2.000000
      vertex 0.278475 0.727691 2.000000
    endloop
  endfacet
  facet normal -0.000000 -0.000000 1.000000
    outer loop
      vertex 0.583908 0.091838 2.000000
      vertex 0.278475 0.727691 2.000000
      vertex 0.000000 0.774650 2.000000
    endloop
  endfacet
  facet normal -0.000000 -0.000000 1.000000
    outer loop
      vertex 0.583908 0.091838 2.000000
      vertex 0.000000 0.774650 2.000000
      vertex 0.000000 0.422595 2.000000
    endloop
  endfacet
  facet normal -0.000000 -0.000000 1.000000
    outer loop
      vertex 0.583908 0.091838 2.000000
      vertex 0.000000 0.422595 2.000000
      vertex 0.000000 0.069849 2.000000
    endloop
  endfacet
  facet normal -0.000000 -0.000000 1.000000
    outer loop
      vertex 0.583908 0.091838 2.000000
      vertex 0.000000 0.069849 2.000000
      vertex 0.055053 0.000000 2.000000
    endloop
  endfacet
  facet normal -0.000000 -0.000000 1.000000
    outer loop
      vertex 0.583908 0.091838 2.000000
      vertex 0.055053 0.000000 2.000000
      vertex 0.602175 0.000000 2.000000
    endloop
  endfacet
  facet normal -0.000000 -0.000000 1.000000
    outer loop
      vertex 0.000000 0.069849 2.000000
      vertex 0.000000 0.000000 2.000000
      vertex 0.055053 0.000000 2.000000
    endloop
  endfacet
  facet normal 0.000000 -1.000000 -0.000000
    outer loop
      vertex 1.765367 0.000000 0.000000
      vertex 2.000000 0.000000 0.000000
      vertex 2.000000 0.000000 2.000000
    endloop
  endfacet
  facet normal 0.000000 -1.000000 -0.000000
    outer loop
      vertex 1.765367 0.000000 0.000000
      vertex 2.000000 0.000000 2.000000
      vertex 1.367542 0.000000 2.000000
    endloop
  endfacet
  facet normal 0.000000 -1.000000 -0.000000
    outer loop
      vertex 1.179580 0.000000 0.000000
      vertex 1.765367 0.000000 0.000000
      vertex 1.367542 0.000000 2.000000
    endloop
  endfacet
  facet normal 0.000000 -1.000000 -0.000000
    outer loop
      vertex 1.179580 0.000000 0.000000
      vertex 1.367542 0.000000 2.000000
      vertex 0.781756 0.000000 2.000000
    endloop
  endfacet
  facet normal 0.000000 -1.000000 -0.000000
    outer loop
      vertex 1.000000 0.000000 0.000000
      vertex 1.179580 0.000000 0.000000
      vertex 0.781756 0.000000 2.000000
    endloop
  endfacet
  facet normal 0.000000 -1.000000 -0.000000
    outer loop
      vertex 1.000000 0.000000 0.000000
      vertex 0.781756 0.000000 2.000000
      vertex 0.602175 0.000000 2.000000
    endloop
  endfacet
  facet normal 0.000000 -1.000000 -0.000000
    outer loop
      vertex 0.834089 0.000000 0.834089
      vertex 0.602175 0.000000 2.000000
      vertex 0.055053 0.000000 2.000000
    endloop
  endfacet
  facet normal 0.000000 -1.000000 -0.000000
    outer loop
      vertex 0.000000 0.000000 1.765367
      vertex 0.923880 0.000000 0.382683
      vertex 0.834089 0.000000 0.834089
    endloop
  endfacet
  facet normal 0.000000 -1.000000 -0.000000
    outer loop
      vertex 0.000000 0.000000 1.765367
      vertex 0.834089 0.000000 0.834089
      vertex 0.055053 0.000000 2.000000
    endloop
  endfacet
  facet normal 0.000000 -1.000000 -0.000000
    outer loop
      vertex 0.000000 0.000000 1.765367
      vertex 0.055053 0.000000 2.000000
      vertex 0.000000 0.000000 2.000000
    endloop
  endfacet
  facet normal 0.000000 -1.000000 -0.000000
    outer loop
      vertex 0.451406 0.000000 1.089790
      vertex 0.000000 0.000000 1.765367
      vertex 0.000000 0.000000 1.391410
    endloop
  endfacet
  facet normal 0.000000 -1.000000 -0.000000
    outer loop
      vertex 0.707107 0.000000 0.707107
      vertex 0.451406 0.000000 1.089790
      vertex 0.000000 0.000000 1.391410
    endloop
  endfacet
  facet normal 0.000000 -1.000000 -0.000000
    outer loop
      vertex 0.707107 0.000000 0.707107
      vertex 0.000000 0.000000 1.391410
      vertex 0.000000 0.000000 1.179580
    endloop
  endfacet
  facet normal 0.000000 -1.000000 -0.000000
    outer loop
      vertex 0.382683 0.000000 0.923880
      vertex 0.000000 0.000000 1.179580
      vertex 0.000000 0.000000 1.000000
    endloop
  endfacet
  facet normal 0.000000 1.000000 0.000000
    outer loop
      vertex 0.000000 2.000000 0.000000
      vertex 0.000000 2.000000 2.000000
      vertex 2.000000 2.000000 2.000000
    endloop
  endfacet
  facet normal 0.000000 1.000000 0.000000
    outer loop
      vertex 0.000000 2.000000 0.000000
      vertex 2.000000 2.000000 2.000000
      vertex 2.000000 2.000000 0.000000
    endloop
  endfacet
  facet normal -1.000000 -0.000000 0.000000
    outer loop
      vertex 0.000000 1.000000 0.000000
      vertex 0.000000 0.920868 2.000000
      vertex 0.000000 2.000000 2.000000
    endloop
  endfacet
  facet normal -1.000000 -0.000000 0.000000
    outer loop
      vertex 0.000000 1.000000 0.000000
      vertex 0.000000 2.000000 2.000000
      vertex 0.000000 2.000000 0.000000
    endloop
  endfacet
  facet normal -1.000000 -0.000000 -0.000000
    outer loop
      vertex 0.000000 0.923880 1.923880
      vertex 0.000000 0.913762 2.000000
      vertex 0.000000 0.920868 2.000000
    endloop
  endfacet
  facet normal -1.000000 -0.000000 -0.000000
    outer loop
      vertex 0.000000 0.923880 1.923880
      vertex 0.000000 1.000000 0.000000
      vertex 0.000000 0.774650 2.000000
    endloop
  endfacet
  facet normal -1.000000 -0.000000 -0.000000
    outer loop
      vertex 0.000000 0.923880 1.923880
      vertex 0.000000 0.774650 2.000000
      vertex 0.000000 0.913762 2.000000
    endloop
  endfacet
  facet normal -1.000000 -0.000000 -0.000000
    outer loop
      vertex 0.000000 0.923880 0.675577
      vertex 0.000000 0.422595 2.000000
      vertex 0.000000 0.774650 2.000000
    endloop
  endfacet
  facet normal -1.000000 -0.000000 -0.000000
    outer loop
      vertex 0.000000 0.707107 1.248303
      vertex 0.000000 0.069849 2.000000
      vertex 0.000000 0.422595 2.000000
    endloop
  endfacet
  facet normal -1.000000 -0.000000 -0.000000
    outer loop
      vertex 0.000000 0.382683 1.630986
      vertex 0.000000 0.000000 1.765367
      vertex 0.000000 0.000000 2.000000
    endloop
  endfacet
  facet normal -1.000000 -0.000000 -0.000000
    outer loop
      vertex 0.000000 0.382683 1.630986
      vertex 0.000000 0.000000 2.000000
      vertex 0.000000 0.069849 2.000000
    endloop
  endfacet
  facet normal -1.000000 -0.000000 -0.000000
    outer loop
      vertex 0.000000 0.855703 0.855703
      vertex 0.000000 0.923880 0.675577
      vertex 0.000000 1.000000 0.000000
    endloop
  endfacet
  facet normal -1.000000 -0.000000 -0.000000
    outer loop
      vertex 0.000000 0.224171 1.686649
      vertex 0.000000 0.382683 1.630986
      vertex 0.000000 0.707107 1.248303
    endloop
  endfacet
  facet normal -1.000000 -0.000000 -0.000000
    outer loop
      vertex 0.000000 0.224171 1.686649
      vertex 0.000000 0.707107 1.248303
      vertex 0.000000 0.855703 0.855703
    endloop
  endfacet
  facet normal -1.000000 -0.000000 -0.000000
    outer loop
      vertex 0.000000 0.224171 1.686649
      vertex 0.000000 0.855703 0.855703
      vertex 0.000000 0.923880 0.451406
    endloop
  endfacet
  facet normal -1.000000 -0.000000 -0.000000
    outer loop
      vertex 0.000000 0.224171 1.686649
      vertex 0.000000 0.707107 0.834089
      vertex 0.000000 0.000000 1.391410
    endloop
  endfacet
  facet normal -1.000000 -0.000000 -0.000000
    outer loop
      vertex 0.000000 0.224171 1.686649
      vertex 0.000000 0.000000 1.391410
      vertex 0.000000 0.000000 1.765367
    endloop
  endfacet
  facet normal -1.000000 -0.000000 -0.000000
    outer loop
      vertex 0.000000 0.382683 1.089790
      vertex 0.000000 0.000000 1.179580
      vertex 0.000000 0.000000 1.391410
    endloop
  endfacet
  facet normal -1.000000 -0.000000 -0.000000
    outer loop
      vertex 0.000000 0.902812 0.488598
      vertex 0.000000 0.923880 0.451406
      vertex 0.000000 1.000000 0.000000
    endloop
  endfacet
  facet normal -1.000000 -0.000000 -0.000000
    outer loop
      vertex 0.000000 0.527863 0.975364
      vertex 0.000000 0.707107 0.834089
      vertex 0.000000 0.902812 0.488598
    endloop
  endfacet
  facet normal -1.000000 -0.000000 -0.000000
    outer loop
      vertex 0.000000 0.527863 0.975364
      vertex 0.000000 0.902812 0.488598
      vertex 0.000000 0.923880 0.382683
    endloop
  endfacet
  facet normal -1.000000 -0.000000 -0.000000
    outer loop
      vertex 0.000000 0.382683 1.089790
      vertex 0.000000 0.527863 0.975364
      vertex 0.000000 0.707107 0.707107
    endloop
  endfacet
  facet normal -1.000000 -0.000000 -0.000000
    outer loop
      vertex 0.000000 0.382683 1.089790
      vertex 0.000000 0.707107 0.707107
      vertex 0.000000 0.000000 1.179580
    endloop
  endfacet
  facet normal -1.000000 -0.000000 -0.000000
    outer loop
      vertex 0.000000 0.382683 0.923880
      vertex 0.000000 0.000000 1.000000
      vertex 0.000000 0.000000 1.179580
    endloop
  endfacet
  facet normal 1.000000 -0.000000 -0.000000
    outer loop
      vertex 2.000000 0.602175 0.000000
      vertex 2.000000 2.000000 0.000000
      vertex 2.000000 2.000000 2.000000
    endloop
  endfacet
  facet normal 1.000000 -0.000000 -0.000000
    outer loop
      vertex 2.000000 0.602175 0.000000
      vertex 2.000000 2.000000 2.000000
      vertex 2.000000 0.523043 2.000000
    endloop
  endfacet
  facet normal 1.000000 -0.000000 -0.000000
    outer loop
      vertex 2.000000 0.000000 0.000000
      vertex 2.000000 0.602175 0.000000
      vertex 2.000000 0.523043 2.000000
    endloop
  endfacet
  facet normal 1.000000 -0.000000 -0.000000
    outer loop
      vertex 2.000000 0.000000 0.000000
      vertex 2.000000 0.523043 2.000000
      vertex 2.000000 0.000000 2.000000
    endloop
  endfacet
  facet normal -0.194944 -0.980048 -0.038777
    outer loop
      vertex 0.382683 0.923880 0.000000
      vertex 0.353553 0.923880 0.146447
      vertex 0.000000 1.000000 0.000000
    endloop
  endfacet
  facet normal -0.552209 -0.826439 -0.109841
    outer loop
      vertex 0.707107 0.707107 0.000000
      vertex 0.653281 0.707107 0.270598
      vertex 0.353553 0.923880 0.146447
    endloop
  endfacet
  facet normal -0.552209 -0.826439 -0.109841
    outer loop
      vertex 0.707107 0.707107 0.000000
      vertex 0.353553 0.923880 0.146447
      vertex 0.382683 0.923880 0.000000
    endloop
  endfacet
  facet normal -0.820326 -0.548124 -0.163173
    outer loop
      vertex 0.923880 0.382683 0.000000
      vertex 0.853553 0.382683 0.353553
      vertex 0.653281 0.707107 0.270598
    endloop
  endfacet
  facet normal -0.820326 -0.548124 -0.163173
    outer loop
      vertex 0.923880 0.382683 0.000000
      vertex 0.653281 0.707107 0.270598
      vertex 0.707107 0.707107 0.000000
    endloop
  endfacet
  facet normal -0.962637 -0.191480 -0.191480
    outer loop
      vertex 1.000000 0.000000 0.000000
      vertex 0.923880 0.000000 0.382683
      vertex 0.853553 0.382683 0.353553
    endloop
  endfacet
  facet normal -0.962637 -0.191480 -0.191480
    outer loop
      vertex 1.000000 0.000000 0.000000
      vertex 0.853553 0.382683 0.353553
      vertex 0.923880 0.382683 0.000000
    endloop
  endfacet
  facet normal -0.165265 -0.980048 -0.110427
    outer loop
      vertex 0.353553 0.923880 0.146447
      vertex 0.270598 0.923880 0.270598
      vertex 0.000000 1.000000 0.000000
    endloop
  endfacet
  facet normal -0.468140 -0.826439 -0.312801
    outer loop
      vertex 0.653281 0.707107 0.270598
      vertex 0.500000 0.707107 0.500000
      vertex 0.270598 0.923880 0.270598
    endloop
  endfacet
  facet normal -0.468140 -0.826439 -0.312801
    outer loop
      vertex 0.653281 0.707107 0.270598
      vertex 0.270598 0.923880 0.270598
      vertex 0.353553 0.923880 0.146447
    endloop
  endfacet
  facet normal -0.695439 -0.548124 -0.464677
    outer loop
      vertex 0.853553 0.382683 0.353553
      vertex 0.653281 0.382683 0.653281
      vertex 0.500000 0.707107 0.500000
    endloop
  endfacet
  facet normal -0.695439 -0.548124 -0.464677
    outer loop
      vertex 0.853553 0.382683 0.353553
      vertex 0.500000 0.707107 0.500000
      vertex 0.653281 0.707107 0.270598
    endloop
  endfacet
  facet normal -0.816084 -0.191480 -0.545290
    outer loop
      vertex 0.923880 0.000000 0.382683
      vertex 0.707107 0.000000 0.707107
      vertex 0.653281 0.382683 0.653281
    endloop
  endfacet
  facet normal -0.816084 -0.191480 -0.545290
    outer loop
      vertex 0.923880 0.000000 0.382683
      vertex 0.653281 0.382683 0.653281
      vertex 0.853553 0.382683 0.353553
    endloop
  endfacet
  facet normal -0.110427 -0.980048 -0.165265
    outer loop
      vertex 0.270598 0.923880 0.270598
      vertex 0.146447 0.923880 0.353553
      vertex 0.000000 1.000000 0.000000
    endloop
  endfacet
  facet normal -0.312801 -0.826439 -0.468140
    outer loop
      vertex 0.500000 0.707107 0.500000
      vertex 0.270598 0.707107 0.653281
      vertex 0.146447 0.923880 0.353553
    endloop
  endfacet
  facet normal -0.312801 -0.826439 -0.468140
    outer loop
      vertex 0.500000 0.707107 0.500000
      vertex 0.146447 0.923880 0.353553
      vertex 0.270598 0.923880 0.270598
    endloop
  endfacet
  facet normal -0.464677 -0.548124 -0.695439
    outer loop
      vertex 0.653281 0.382683 0.653281
      vertex 0.353553 0.382683 0.853553
      vertex 0.270598 0.707107 0.653281
    endloop
  endfacet
  facet normal -0.464677 -0.548124 -0.695439
    outer loop
      vertex 0.653281 0.382683 0.653281
      vertex 0.270598 0.707107 0.653281
      vertex 0.500000 0.707107 0.500000
    endloop
  endfacet
  facet normal -0.545290 -0.191480 -0.816084
    outer loop
      vertex 0.707107 0.000000 0.707107
      vertex 0.382683 0.000000 0.923880
      vertex 0.353553 0.382683 0.853553
    endloop
  endfacet
  facet normal -0.545290 -0.191480 -0.816084
    outer loop
      vertex 0.707107 0.000000 0.707107
      vertex 0.353553 0.382683 0.853553
      vertex 0.653281 0.382683 0.653281
    endloop
  endfacet
  facet normal -0.038777 -0.980048 -0.194944
    outer loop
      vertex 0.146447 0.923880 0.353553
      vertex 0.000000 0.923880 0.382683
      vertex 0.000000 1.000000 0.000000
    endloop
  endfacet
  facet normal -0.109841 -0.826439 -0.552209
    outer loop
      vertex 0.270598 0.707107 0.653281
      vertex 0.000000 0.707107 0.707107
      vertex 0.000000 0.923880 0.382683
    endloop
  endfacet
  facet normal -0.109841 -0.826439 -0.552209
    outer loop
      vertex 0.270598 0.707107 0.653281
      vertex 0.000000 0.923880 0.382683
      vertex 0.146447 0.923880 0.353553
    endloop
  endfacet
  facet normal -0.163173 -0.548124 -0.820326
    outer loop
      vertex 0.353553 0.382683 0.853553
      vertex 0.000000 0.382683 0.923880
      vertex 0.000000 0.707107 0.707107
    endloop
  endfacet
  facet normal -0.163173 -0.548124 -0.820326
    outer loop
      vertex 0.353553 0.382683 0.853553
      vertex 0.000000 0.707107 0.707107
      vertex 0.270598 0.707107 0.653281
    endloop
  endfacet
  facet normal -0.191480 -0.191480 -0.962637
    outer loop
      vertex 0.382683 0.000000 0.923880
      vertex 0.000000 0.000000 1.000000
      vertex 0.000000 0.382683 0.923880
    endloop
  endfacet
  facet normal -0.191480 -0.191480 -0.962637
    outer loop
      vertex 0.382683 0.000000 0.923880
      vertex 0.000000 0.382683 0.923880
      vertex 0.353553 0.382683 0.853553
    endloop
  endfacet
endsolid cube_trans0.00_sphere1.00
